<svg xmlns="http://www.w3.org/2000/svg" xmlns:xlink="http://www.w3.org/1999/xlink" width="100" zoomAndPan="magnify" viewBox="0 0 75 35.25" height="47" preserveAspectRatio="xMidYMid meet" version="1.0"><defs><g/><clipPath id="5944e04c4f"><path d="M 4.234375 17.992188 L 71.945312 17.992188 L 71.945312 29.332031 L 4.234375 29.332031 Z M 4.234375 17.992188 " clip-rule="nonzero"/></clipPath></defs><g fill="#2b3339" fill-opacity="1"><g transform="translate(3.053223, 14.011875)"><g><path d="M 6.65625 0 L 3.21875 -5.109375 L 3.21875 0 L 1.28125 0 L 1.28125 -10.65625 L 3.21875 -10.65625 L 3.21875 -5.34375 L 6.609375 -10.65625 L 8.859375 -10.65625 L 5.234375 -5.359375 L 9.109375 0 Z M 6.65625 0 "/></g></g></g><g fill="#2b3339" fill-opacity="1"><g transform="translate(12.155714, 14.011875)"><g><path d="M 6.25 -1.546875 L 2.4375 -1.546875 L 1.875 0 L -0.265625 0 L 4.25 -10.828125 L 4.40625 -10.828125 L 8.921875 0 L 6.84375 0 Z M 5.6875 -3.03125 L 4.5625 -5.921875 L 4.3125 -6.78125 L 4.0625 -5.921875 L 3 -3.03125 Z M 5.6875 -3.03125 "/></g></g></g><g fill="#2b3339" fill-opacity="1"><g transform="translate(20.815301, 14.011875)"><g><path d="M 6.40625 -1.6875 L 6.40625 0 L 1.28125 0 L 1.28125 -10.65625 L 3.21875 -10.65625 L 3.21875 -1.6875 Z M 6.40625 -1.6875 "/></g></g></g><g fill="#2b3339" fill-opacity="1"><g transform="translate(27.61162, 14.011875)"><g><path d="M 6.25 -1.546875 L 2.4375 -1.546875 L 1.875 0 L -0.265625 0 L 4.25 -10.828125 L 4.40625 -10.828125 L 8.921875 0 L 6.84375 0 Z M 5.6875 -3.03125 L 4.5625 -5.921875 L 4.3125 -6.78125 L 4.0625 -5.921875 L 3 -3.03125 Z M 5.6875 -3.03125 "/></g></g></g><g fill="#2b3339" fill-opacity="1"><g transform="translate(36.271207, 14.011875)"><g><path d="M 12.390625 -10.65625 L 8.859375 0.015625 L 8.625 0.015625 L 6.125 -6.09375 L 3.671875 0 L 3.40625 0 L -0.15625 -10.65625 L 1.953125 -10.65625 L 3.8125 -4.46875 L 6.03125 -10.65625 L 6.296875 -10.65625 L 8.546875 -4.5 L 10.296875 -10.65625 Z M 12.390625 -10.65625 "/></g></g></g><g fill="#2b3339" fill-opacity="1"><g transform="translate(48.504586, 14.011875)"><g><path d="M 6.25 -1.546875 L 2.4375 -1.546875 L 1.875 0 L -0.265625 0 L 4.25 -10.828125 L 4.40625 -10.828125 L 8.921875 0 L 6.84375 0 Z M 5.6875 -3.03125 L 4.5625 -5.921875 L 4.3125 -6.78125 L 4.0625 -5.921875 L 3 -3.03125 Z M 5.6875 -3.03125 "/></g></g></g><g fill="#2b3339" fill-opacity="1"><g transform="translate(57.164173, 14.011875)"><g><path d="M 1.8125 0.234375 C 1.53125 0.234375 1.179688 0.179688 0.765625 0.078125 C 0.359375 -0.015625 0.0664062 -0.128906 -0.109375 -0.265625 L 0.625 -2.078125 C 0.75 -1.890625 0.910156 -1.738281 1.109375 -1.625 C 1.316406 -1.519531 1.523438 -1.46875 1.734375 -1.46875 C 1.984375 -1.46875 2.195312 -1.5 2.375 -1.5625 C 2.550781 -1.625 2.703125 -1.769531 2.828125 -2 C 2.953125 -2.226562 3.015625 -2.566406 3.015625 -3.015625 L 3.015625 -10.65625 L 5 -10.65625 L 5 -3.1875 C 5 -2.144531 4.75 -1.3125 4.25 -0.6875 C 3.757812 -0.0703125 2.945312 0.234375 1.8125 0.234375 Z M 1.8125 0.234375 "/></g></g></g><g fill="#2b3339" fill-opacity="1"><g transform="translate(63.273225, 14.011875)"><g><path d="M 6.25 -1.546875 L 2.4375 -1.546875 L 1.875 0 L -0.265625 0 L 4.25 -10.828125 L 4.40625 -10.828125 L 8.921875 0 L 6.84375 0 Z M 5.6875 -3.03125 L 4.5625 -5.921875 L 4.3125 -6.78125 L 4.0625 -5.921875 L 3 -3.03125 Z M 5.6875 -3.03125 "/></g></g></g><g clip-path="url(#5944e04c4f)"><path fill="#2b3339" d="M 4.234375 17.992188 L 72.023438 17.992188 L 72.023438 29.316406 L 4.234375 29.316406 Z M 4.234375 17.992188 " fill-opacity="1" fill-rule="nonzero"/></g><g fill="#ffd51e" fill-opacity="1"><g transform="translate(3.498437, 28.802187)"><g><path d="M 3.984375 -10.65625 C 5.546875 -10.65625 6.738281 -10.21875 7.5625 -9.34375 C 8.394531 -8.46875 8.8125 -7.171875 8.8125 -5.453125 C 8.8125 -4.335938 8.625 -3.367188 8.25 -2.546875 C 7.875 -1.734375 7.320312 -1.101562 6.59375 -0.65625 C 5.875 -0.21875 5 0 3.96875 0 L 1.234375 0 L 1.234375 -10.65625 Z M 3.921875 -1.6875 C 4.628906 -1.6875 5.195312 -1.859375 5.625 -2.203125 C 6.0625 -2.546875 6.367188 -2.992188 6.546875 -3.546875 C 6.734375 -4.109375 6.828125 -4.726562 6.828125 -5.40625 C 6.828125 -6.488281 6.597656 -7.378906 6.140625 -8.078125 C 5.691406 -8.773438 4.953125 -9.125 3.921875 -9.125 L 3.203125 -9.125 L 3.203125 -1.6875 Z M 3.921875 -1.6875 "/></g></g></g><g fill="#ffd51e" fill-opacity="1"><g transform="translate(16.862624, 28.802187)"><g><path d="M 7.109375 -1.734375 L 7.109375 0 L 1.234375 0 L 1.234375 -10.65625 L 6.796875 -10.65625 L 6.796875 -8.984375 L 3.140625 -8.984375 L 3.140625 -6.5 L 6.046875 -6.5 L 6.046875 -4.875 L 3.140625 -4.875 L 3.140625 -1.734375 Z M 7.109375 -1.734375 "/></g></g></g><g fill="#ffd51e" fill-opacity="1"><g transform="translate(28.684271, 28.802187)"><g><path d="M 3.875 0.171875 C 3.40625 0.171875 2.957031 0.113281 2.53125 0 C 2.113281 -0.113281 1.75 -0.257812 1.4375 -0.4375 C 1.125 -0.613281 0.875 -0.800781 0.6875 -1 L 1.46875 -2.59375 C 1.582031 -2.445312 1.757812 -2.285156 2 -2.109375 C 2.238281 -1.929688 2.507812 -1.78125 2.8125 -1.65625 C 3.125 -1.539062 3.4375 -1.484375 3.75 -1.484375 C 4.144531 -1.484375 4.476562 -1.59375 4.75 -1.8125 C 5.03125 -2.03125 5.171875 -2.34375 5.171875 -2.75 C 5.171875 -3.007812 5.109375 -3.234375 4.984375 -3.421875 C 4.859375 -3.617188 4.691406 -3.789062 4.484375 -3.9375 C 4.273438 -4.09375 3.957031 -4.296875 3.53125 -4.546875 C 2.945312 -4.910156 2.488281 -5.21875 2.15625 -5.46875 C 1.820312 -5.71875 1.535156 -6.046875 1.296875 -6.453125 C 1.054688 -6.867188 0.9375 -7.367188 0.9375 -7.953125 C 0.9375 -8.515625 1.054688 -9.007812 1.296875 -9.4375 C 1.535156 -9.875 1.890625 -10.210938 2.359375 -10.453125 C 2.835938 -10.703125 3.410156 -10.828125 4.078125 -10.828125 C 5.160156 -10.828125 6.066406 -10.5 6.796875 -9.84375 L 5.9375 -8.28125 C 5.851562 -8.40625 5.722656 -8.539062 5.546875 -8.6875 C 5.378906 -8.832031 5.171875 -8.957031 4.921875 -9.0625 C 4.679688 -9.164062 4.425781 -9.21875 4.15625 -9.21875 C 3.757812 -9.21875 3.453125 -9.101562 3.234375 -8.875 C 3.023438 -8.644531 2.921875 -8.359375 2.921875 -8.015625 C 2.921875 -7.765625 2.984375 -7.535156 3.109375 -7.328125 C 3.242188 -7.128906 3.414062 -6.953125 3.625 -6.796875 C 3.832031 -6.640625 4.117188 -6.453125 4.484375 -6.234375 C 5.128906 -5.847656 5.617188 -5.523438 5.953125 -5.265625 C 6.296875 -5.003906 6.582031 -4.675781 6.8125 -4.28125 C 7.050781 -3.882812 7.171875 -3.394531 7.171875 -2.8125 C 7.171875 -2.195312 7.035156 -1.664062 6.765625 -1.21875 C 6.503906 -0.769531 6.125 -0.425781 5.625 -0.1875 C 5.132812 0.0507812 4.550781 0.171875 3.875 0.171875 Z M 3.875 0.171875 "/></g></g></g><g fill="#ffd51e" fill-opacity="1"><g transform="translate(40.475381, 28.802187)"><g><path d="M 1.234375 -10.65625 L 3.1875 -10.65625 L 3.1875 0 L 1.234375 0 Z M 1.234375 -10.65625 "/></g></g></g><g fill="#ffd51e" fill-opacity="1"><g transform="translate(48.998147, 28.802187)"><g><path d="M 9.015625 -5.71875 C 9.078125 -5.082031 9.109375 -4.585938 9.109375 -4.234375 C 9.109375 -2.878906 8.8125 -1.785156 8.21875 -0.953125 C 7.625 -0.128906 6.5625 0.28125 5.03125 0.28125 C 4.175781 0.28125 3.410156 0.0546875 2.734375 -0.390625 C 2.054688 -0.847656 1.523438 -1.503906 1.140625 -2.359375 C 0.753906 -3.222656 0.5625 -4.242188 0.5625 -5.421875 C 0.5625 -6.460938 0.757812 -7.394531 1.15625 -8.21875 C 1.5625 -9.039062 2.125 -9.679688 2.84375 -10.140625 C 3.5625 -10.597656 4.375 -10.828125 5.28125 -10.828125 C 5.90625 -10.828125 6.421875 -10.78125 6.828125 -10.6875 C 7.242188 -10.59375 7.5625 -10.476562 7.78125 -10.34375 C 8.007812 -10.207031 8.210938 -10.054688 8.390625 -9.890625 L 7.546875 -8.1875 C 7.128906 -8.75 6.382812 -9.03125 5.3125 -9.03125 C 4.800781 -9.03125 4.335938 -8.878906 3.921875 -8.578125 C 3.515625 -8.273438 3.191406 -7.851562 2.953125 -7.3125 C 2.722656 -6.78125 2.609375 -6.164062 2.609375 -5.46875 C 2.609375 -4.632812 2.707031 -3.910156 2.90625 -3.296875 C 3.113281 -2.691406 3.398438 -2.226562 3.765625 -1.90625 C 4.140625 -1.59375 4.570312 -1.4375 5.0625 -1.4375 C 5.832031 -1.4375 6.382812 -1.613281 6.71875 -1.96875 C 7.0625 -2.332031 7.234375 -2.882812 7.234375 -3.625 C 7.234375 -3.707031 7.226562 -3.84375 7.21875 -4.03125 L 5.03125 -4.03125 L 5.03125 -5.71875 Z M 9.015625 -5.71875 "/></g></g></g><g fill="#ffd51e" fill-opacity="1"><g transform="translate(62.698337, 28.802187)"><g><path d="M 8.8125 -10.65625 L 8.8125 0.21875 L 8.671875 0.21875 L 3.5625 -5.609375 L 3.09375 -6.21875 L 3.15625 -4.734375 L 3.15625 0 L 1.28125 0 L 1.28125 -10.828125 L 1.453125 -10.828125 L 6.484375 -4.96875 L 7.015625 -4.265625 L 6.9375 -5.734375 L 6.9375 -10.65625 Z M 8.8125 -10.65625 "/></g></g></g></svg>